<svg width="50" height="51" viewBox="0 0 50 51" fill="none" xmlns="http://www.w3.org/2000/svg">
<path fill-rule="evenodd" clip-rule="evenodd" d="M21.3692 50.271H28.6299C30.3762 50.271 31.9195 49.0877 32.2948 47.4584L33.2162 43.5545C34.7135 42.9479 36.1412 42.1564 37.4815 41.1897L41.4678 42.3917C43.1705 42.896 45.026 42.2063 45.8705 40.7648L49.5119 34.7543C50.3697 33.2941 50.0751 31.4729 48.8 30.3274C48.7936 30.3232 48.7892 30.319 48.7848 30.3148L45.7159 27.6231C45.8074 26.8293 45.8534 26.0397 45.8534 25.271C45.8534 24.5023 45.8074 23.7127 45.7159 22.9189L48.8 20.2127C50.0751 19.0668 50.3677 17.246 49.5011 15.7667L45.8817 9.79401C45.026 8.33565 43.1749 7.64824 41.4634 8.15025L37.4839 9.34998C36.1436 8.38333 34.7159 7.59178 33.2182 6.98563L32.2992 3.08548C31.9195 1.45432 30.3762 0.270996 28.6299 0.270996H21.3692C19.6229 0.270996 18.0796 1.45432 17.7019 3.07938L16.781 6.98334C15.2833 7.58987 13.8555 8.38142 12.5153 9.34807L8.5294 8.14606C6.83304 7.64824 4.9732 8.33336 4.12861 9.77531L0.487273 15.7858C-0.370501 17.246 -0.0759163 19.0668 1.21434 20.2253L4.2813 22.9189C4.18977 23.7127 4.1438 24.5 4.1438 25.271C4.1438 26.0419 4.18977 26.8293 4.2833 27.6231L1.19915 30.3293C-0.0759164 31.4752 -0.368503 33.296 0.498464 34.7753L4.11742 40.748C4.9732 42.2063 6.82864 42.8979 8.5358 42.3917L12.5153 41.192C13.8555 42.1587 15.2833 42.9502 16.781 43.5564L17.6999 47.4565C18.0796 49.0877 19.6229 50.271 21.3692 50.271ZM13.8907 38.2501C13.5937 38.0167 13.2248 37.8938 12.8494 37.8938C12.6836 37.8938 12.5177 37.9167 12.3562 37.9667L7.55771 39.4128C7.32868 39.4792 7.07966 39.4022 6.96414 39.2042L3.34479 33.2315C3.22487 33.0251 3.26405 32.7669 3.42992 32.6189L7.12363 29.3771C7.52294 29.025 7.7152 28.5085 7.63445 27.9958C7.49016 27.0731 7.41821 26.1564 7.41821 25.271C7.41821 24.3856 7.49016 23.4689 7.63445 22.5462C7.7152 22.0335 7.52294 21.5147 7.12363 21.1649L3.44311 17.9376C3.26205 17.7751 3.22248 17.5169 3.3316 17.3292L6.97294 11.321C7.07766 11.1417 7.32668 11.0628 7.55131 11.1292L12.3562 12.5772C12.8798 12.7355 13.4606 12.6295 13.8907 12.2919C15.388 11.1147 17.0252 10.2064 18.7543 9.59793C19.276 9.41254 19.6625 8.99178 19.7844 8.47527L20.898 3.76259C20.9459 3.55011 21.1446 3.396 21.3692 3.396H28.6299C28.8546 3.396 29.0532 3.55011 29.108 3.76259L30.2192 8.47107C30.3411 8.98758 30.7276 9.41063 31.2492 9.59373C32.9803 10.2022 34.6156 11.1105 36.1153 12.2877C36.5453 12.6253 37.1213 12.7336 37.6497 12.573L42.4478 11.1272C42.6749 11.0586 42.9239 11.1375 43.0414 11.3355L46.6608 17.3086C46.7811 17.5146 46.7415 17.7732 46.5756 17.9208L42.8823 21.1626C42.4826 21.5147 42.2908 22.0316 42.3715 22.5439C42.5154 23.4666 42.5877 24.3833 42.5877 25.2691C42.5877 26.1545 42.5154 27.0712 42.3715 27.9939C42.2908 28.5062 42.4826 29.025 42.8823 29.3752L46.5672 32.6086C46.7415 32.7711 46.7811 33.0251 46.672 33.2105L43.0306 39.221C42.9259 39.4003 42.6813 39.4815 42.4522 39.4128L37.6477 37.9648C37.1169 37.8042 36.541 37.9125 36.1129 38.2501C34.6132 39.4273 32.976 40.3356 31.2472 40.9441C30.7256 41.1272 30.3391 41.5502 30.2168 42.0667L29.1036 46.7794C29.0556 46.9919 28.857 47.146 28.6319 47.146H21.3716C21.1466 47.146 20.9479 46.9919 20.898 46.7752L19.7868 42.0667C19.6645 41.5502 19.278 41.1272 18.7563 40.9441C17.0252 40.3356 15.3904 39.4273 13.8907 38.2501ZM14.0848 25.2711C14.0848 31.0149 18.9813 35.6879 24.9997 35.6879C31.0177 35.6879 35.9141 31.0149 35.9141 25.2711C35.9141 19.5273 31.0177 14.8543 24.9997 14.8543C18.9813 14.8543 14.0848 19.5273 14.0848 25.2711ZM17.3592 25.2711C17.3592 21.2504 20.7863 17.9793 24.9997 17.9793C29.2126 17.9793 32.6397 21.2504 32.6397 25.2711C32.6397 29.2918 29.2126 32.5629 24.9997 32.5629C20.7863 32.5629 17.3592 29.2918 17.3592 25.2711Z" fill="#FFCA08"/>
</svg>
