<svg width="77" height="51" viewBox="0 0 77 51" fill="none" xmlns="http://www.w3.org/2000/svg">
<path fill-rule="evenodd" clip-rule="evenodd" d="M28.9204 17.4491C28.9204 20.9521 27.0601 24.0282 24.2763 25.7437C32.2962 28.042 38.3669 35.3176 38.3672 43.5764V49.2405C38.3672 49.8424 37.8793 50.3302 37.2775 50.3302H12.0616C11.4597 50.3302 10.9719 49.8422 10.9719 49.2405C10.9719 48.6386 11.4599 48.1508 12.0616 48.1508H36.1877V43.5764C36.1877 39.3091 34.3667 35.2287 31.0602 32.0871C29.0835 30.2093 26.6906 28.8102 24.1376 27.9939L22.4117 31.347L24.7305 41.4129C24.8186 41.7956 24.6939 42.1961 24.4043 42.4613L19.9189 46.5664C19.7109 46.7569 19.4471 46.8521 19.1834 46.8521C18.9197 46.8521 18.656 46.7569 18.4479 46.5664L13.9625 42.4613C13.6728 42.1961 13.5482 41.7956 13.6363 41.4129L15.9551 31.3471L14.2292 27.9939C11.6762 28.8102 9.28314 30.2092 7.3066 32.0871C4.00005 35.2287 2.17905 39.3089 2.17905 43.5764V48.1507H8.4299C9.03178 48.1507 9.51957 48.6386 9.51957 49.2403C9.51957 49.8422 9.03164 50.33 8.4299 50.33H1.08967C0.487793 50.33 0 49.8421 0 49.2403V43.5764C0 35.3174 6.07081 28.0419 14.0908 25.7435C11.3068 24.0279 9.44666 20.952 9.44666 17.449V13.7284V10.0079C9.44666 4.63895 13.8146 0.270996 19.1835 0.270996C24.5526 0.270996 28.9204 4.63895 28.9204 10.0079V13.7274V17.4491ZM19.1834 2.45034C15.0162 2.45034 11.6257 5.84082 11.6257 10.008V12.5995C17.6327 12.1579 19.8657 8.15048 19.8888 8.10772C20.0913 7.73227 20.4941 7.50918 20.9199 7.53788C21.3455 7.56629 21.7156 7.84012 21.8666 8.23906C21.9284 8.39851 23.3159 11.8841 26.7411 12.5341V10.008C26.7411 5.84082 23.3507 2.45034 19.1834 2.45034ZM19.1832 44.2859L22.4643 41.283L20.3931 32.2927H17.9734L15.9023 41.283L19.1832 44.2859ZM16.6719 27.4008C16.581 27.4162 16.49 27.4317 16.3993 27.4484L17.771 30.1135H20.5956L21.9676 27.4484C21.8769 27.4316 21.7859 27.4161 21.695 27.4008C21.6339 27.3908 21.5729 27.3808 21.5117 27.3714C21.3772 27.3505 21.2424 27.331 21.1076 27.3133C20.9719 27.2957 20.8364 27.2791 20.7005 27.2647C20.6282 27.257 20.5559 27.2496 20.4835 27.2428C20.2999 27.2257 20.1159 27.2109 19.9321 27.2001C19.9047 27.1984 19.8773 27.1971 19.8499 27.1958L19.8002 27.1933C19.6856 27.1874 19.571 27.1842 19.4565 27.1809L19.4563 27.1809L19.4233 27.1799C19.3948 27.1806 19.3664 27.1816 19.338 27.1825C19.2866 27.1843 19.2352 27.186 19.1834 27.186C19.1316 27.186 19.0801 27.1843 19.0287 27.1825C19.0003 27.1816 18.9719 27.1806 18.9435 27.1799L18.9004 27.1812L18.9003 27.1812L18.9001 27.1812C18.7889 27.1843 18.6778 27.1875 18.5666 27.1933L18.5172 27.1957L18.5166 27.1958C18.5007 27.1966 18.4848 27.1973 18.4689 27.1982C18.4575 27.1988 18.4462 27.1994 18.4348 27.2001C18.2511 27.2111 18.0672 27.2259 17.8834 27.2428C17.811 27.2496 17.7387 27.257 17.6664 27.2647C17.5305 27.2791 17.3949 27.2957 17.2593 27.3133C17.1244 27.331 16.9897 27.3504 16.8552 27.3714C16.794 27.3808 16.733 27.3908 16.6719 27.4008ZM19.403 24.9971L19.4753 24.9993C23.5077 24.8452 26.7411 21.5185 26.7412 17.449V14.7426C23.5948 14.3225 21.6832 12.1956 20.6904 10.6531C19.2796 12.2217 16.4384 14.4818 11.6259 14.7835V17.4491C11.6259 21.5185 14.8593 24.8453 18.8917 24.9993L18.9642 24.9971C19.0322 24.9951 19.1003 24.993 19.1686 24.992C19.1785 24.9919 19.1885 24.9919 19.1983 24.992C19.2666 24.993 19.3346 24.9951 19.4026 24.9971L19.403 24.9971ZM53.3776 14.4873C54.1511 14.5997 54.7814 15.1313 55.0229 15.8745C55.2644 16.6175 55.0668 17.4182 54.5071 17.9635L50.922 21.4581L51.7684 26.3924C51.9006 27.1626 51.5901 27.9262 50.9578 28.3856C50.3255 28.845 49.5032 28.9044 48.8115 28.5406L44.3803 26.2109L39.949 28.5406C39.6482 28.6989 39.3225 28.777 38.9987 28.777C38.578 28.777 38.1599 28.6451 37.8027 28.3856C37.1706 27.9264 36.8599 27.1626 36.992 26.3924L37.8384 21.4579L34.2532 17.9634C33.6937 17.4179 33.4959 16.6174 33.7375 15.8743C33.979 15.1311 34.6092 14.5995 35.3826 14.4872L40.3371 13.7673L42.5522 9.27803C42.898 8.57744 43.5984 8.14197 44.3797 8.14197C45.1612 8.14197 45.8617 8.57729 46.2074 9.27803L48.4231 13.7675L53.3776 14.4873ZM48.7618 21.7531C48.6485 21.0916 48.8677 20.4174 49.348 19.9492L52.7811 16.6023L48.0364 15.9129C47.3725 15.8165 46.799 15.3997 46.502 14.7981L44.3802 10.4987L42.2582 14.7983C41.9612 15.3999 41.3875 15.8166 40.7237 15.913L35.979 16.6025L39.4122 19.9492C39.8926 20.4174 40.112 21.0918 39.9985 21.7531L39.188 26.4786L43.4317 24.2475C44.0255 23.9353 44.7346 23.9354 45.3284 24.2475L49.5722 26.4786L48.7618 21.7531ZM76.8988 8.84326C76.6573 8.10019 76.027 7.56862 75.2537 7.45627L70.2992 6.73625L68.0833 2.24682C67.7374 1.54608 67.0371 1.11062 66.2556 1.11062C65.4742 1.11062 64.7739 1.54608 64.428 2.24667L62.2123 6.73611L57.2578 7.45613C56.4844 7.56847 55.8541 8.10004 55.6128 8.84311C55.3713 9.58618 55.5689 10.3867 56.1284 10.9323L59.7137 14.4267L58.8674 19.3612C58.7354 20.1314 59.046 20.8952 59.6782 21.3544C60.3104 21.8138 61.1326 21.8732 61.8245 21.5095L66.2558 19.1798L70.6872 21.5095C70.9882 21.6675 71.3136 21.7458 71.6373 21.7458C72.058 21.7458 72.4761 21.6139 72.8332 21.3544C73.4656 20.895 73.7761 20.1312 73.644 19.3612L72.7977 14.4269L76.3829 10.9323C76.9426 10.3869 77.1402 9.58633 76.8988 8.84326ZM71.2235 12.9183C70.7431 13.3866 70.5239 14.061 70.6372 14.7221L71.4477 19.4477L67.2037 17.2165C66.9068 17.0605 66.5812 16.9824 66.2556 16.9824C65.9299 16.9824 65.6042 17.0605 65.3073 17.2165L61.0634 19.4476L61.8739 14.7221C61.9874 14.0608 61.7681 13.3865 61.2878 12.9183L57.8546 9.57154L62.5992 8.88211C63.2631 8.78556 63.8368 8.3688 64.1336 7.76721L66.2554 3.46782L68.3772 7.76707C68.6742 8.3688 69.2476 8.78556 69.9117 8.88211L74.6564 9.57154L71.2235 12.9183ZM68.2223 31.6754C68.9957 31.7877 69.626 32.3193 69.8675 33.0623C70.1088 33.8054 69.9112 34.606 69.3515 35.1514L65.7664 38.6459L66.6127 43.5803C66.7447 44.3503 66.4342 45.1141 65.8019 45.5735C65.4447 45.8329 65.0266 45.9649 64.606 45.9649C64.2823 45.9649 63.9568 45.8866 63.6559 45.7286L59.2244 43.3989L54.7931 45.7286C54.1012 46.0923 53.279 46.0328 52.6468 45.5735C52.0147 45.1142 51.704 44.3504 51.8361 43.5803L52.6824 38.6458L49.097 35.1514C48.5375 34.6057 48.3399 33.8053 48.5814 33.0622C48.8228 32.3191 49.4531 31.7876 50.2264 31.6752L55.1809 30.9552L57.3966 26.4658C57.7425 25.7652 58.4428 25.3297 59.2243 25.3297C60.0058 25.3297 60.7061 25.7652 61.052 26.4659L63.2678 30.9553L68.2223 31.6754ZM63.6059 38.9412C63.4925 38.2801 63.7117 37.6057 64.1921 37.1373L67.6251 33.7906L62.8803 33.1012C62.2163 33.0046 61.6428 32.5879 61.3458 31.9862L59.224 27.6869L57.1022 31.9863C56.8055 32.5879 56.2317 33.0046 55.5678 33.1012L50.8232 33.7906L54.2565 37.1373C54.7367 37.6056 54.9561 38.2799 54.8426 38.9412L54.0321 43.6667L58.276 41.4356C58.5728 41.2796 58.8986 41.2015 59.2243 41.2015C59.5499 41.2015 59.8755 41.2796 60.1723 41.4356L64.4164 43.6668L63.6059 38.9412Z" fill="#FFCA08"/>
</svg>
