<svg width="54" height="67" viewBox="0 0 54 67" fill="none" xmlns="http://www.w3.org/2000/svg">
<path fill-rule="evenodd" clip-rule="evenodd" d="M28.9263 2.46917L27.5988 0L26.2811 2.47441L19.9425 14.3775L3.78964 8.50656L0 7.12918L1.96805 10.6485L11.622 27.9116L12.5208 29.5189L13.9131 28.3134C17.9454 24.8218 29.0016 19.8381 40.6176 28.3875L42.0353 29.4309L42.8406 27.8657L51.7222 10.6026L53.4153 7.31162L49.9087 8.49509L34.8909 13.5636L28.9263 2.46917ZM21.9783 16.9372L27.6114 6.35891L32.8486 16.1003L33.4487 17.2165L34.6494 16.8113L47.3614 12.521L40.9561 24.9709C29.543 17.5022 18.6978 21.2329 13.3917 24.9298L6.5545 12.7035L20.1419 17.6419L21.3661 18.0868L21.9783 16.9372ZM27.3219 66.0468C18.3181 66.0468 10.9929 57.806 10.9929 47.6766C10.9929 37.5473 18.3181 29.3064 27.3219 29.3064C36.3258 29.3064 43.651 37.5473 43.651 47.6766C43.651 57.806 36.3258 66.0468 27.3219 66.0468ZM31.7444 46.0066C31.613 42.3908 31.0561 39.0582 30.1423 36.488C29.3126 34.1544 28.2056 32.6464 27.3219 32.6464C26.4383 32.6464 25.3312 34.1544 24.5015 36.488C23.5876 39.0582 23.0307 42.3908 22.8993 46.0066H31.7444ZM24.5015 58.8652C25.3313 61.1989 26.4384 62.7068 27.3219 62.7068C28.2055 62.7068 29.3126 61.1989 30.1423 58.8652C31.056 56.295 31.613 52.9625 31.7444 49.3466H22.8993C23.0307 52.9625 23.5876 56.295 24.5015 58.8652ZM21.7449 35.2476C21.9385 34.703 22.145 34.1946 22.3625 33.7207C17.8837 35.7423 14.5964 40.4168 14.0447 46.0066H19.9283C20.0653 41.9634 20.6979 38.1922 21.7449 35.2476ZM19.9282 49.3466H14.0446C14.5964 54.9364 17.8837 59.6109 22.3624 61.6325C22.1449 61.1587 21.9384 60.6502 21.7448 60.1057C20.6979 57.161 20.0653 53.3899 19.9282 49.3466ZM32.8989 60.1057C32.7053 60.6502 32.4987 61.1587 32.2812 61.6325C36.76 59.6109 40.0473 54.9364 40.5991 49.3466H34.7154C34.5785 53.3899 33.9459 57.161 32.8989 60.1057ZM34.7155 46.0066H40.5992C40.0473 40.4168 36.76 35.7423 32.2813 33.7207C32.4988 34.1946 32.7054 34.703 32.899 35.2476C33.9459 38.1922 34.5785 41.9634 34.7155 46.0066Z" fill="#FFCA08"/>
</svg>
