<svg width="18" height="16" viewBox="0 0 18 16" fill="none" xmlns="http://www.w3.org/2000/svg">
<path opacity="0.3" d="M16.9906 2.47989L16.9904 2.47951C16.3468 1.17811 14.4257 0.0316995 12.1253 0.693004L12.124 0.69337C11.0242 1.00636 10.0662 1.67716 9.40553 2.59444L8.99981 3.1577L8.5941 2.59444C7.93349 1.6773 6.9757 1.00657 5.87615 0.693515C3.56698 0.0415033 1.65197 1.17991 1.00926 2.47951L1.00907 2.47989C0.0643555 4.3861 0.409574 6.58296 2.26797 9.0941L16.9906 2.47989ZM16.9906 2.47989C17.9354 4.38635 17.5899 6.5835 15.7367 9.09494L15.7358 9.09619C14.2681 11.098 12.1496 13.11 9.04478 15.4857L9.04395 15.4863C9.033 15.4947 9.01847 15.5 9.00263 15.5C8.98679 15.5 8.97226 15.4947 8.96131 15.4863L8.96058 15.4858M16.9906 2.47989L8.96058 15.4858M8.96058 15.4858C5.85196 13.106 3.73729 11.0765 2.26817 9.09437L8.96058 15.4858Z" fill="black" stroke="black"/>
</svg>
