<svg width="57" height="58" viewBox="0 0 57 58" fill="none" xmlns="http://www.w3.org/2000/svg">
<path fill-rule="evenodd" clip-rule="evenodd" d="M55.9873 12.0033L51.3389 11.7197C55.0089 16.6228 57 22.5663 57 28.771C57 44.5243 44.251 57.271 28.5 57.271C12.7467 57.271 0 44.5219 0 28.771C0 13.0176 12.7491 0.270996 28.5 0.270996V3.62394C14.6339 3.62394 3.35294 14.9049 3.35294 28.771C3.35294 42.6371 14.6339 53.9181 28.5 53.9181C42.3661 53.9181 53.6471 42.6371 53.6471 28.771C53.6471 23.4167 51.9659 18.2834 48.863 14.0134L48.6138 17.6998L45.2685 17.4737L45.9068 8.02914L56.1914 8.65648L55.9873 12.0033ZM21.9061 31.3197V34.7853H24.5672C24.6805 34.7853 24.7925 34.784 24.903 34.7813L29.9822 42.6138H34.1595L28.6864 33.904C29.462 33.4904 30.1002 32.9899 30.601 32.4027C31.2199 31.6807 31.6634 30.8762 31.9316 29.9892C32.0438 29.6179 32.1326 29.2465 32.1979 28.8752H34.6236V25.8738H32.2071C32.1049 25.3334 31.9408 24.8486 31.715 24.4195C31.5629 24.1074 31.3861 23.8186 31.1844 23.5531H34.5927V20.0875H21.9061V23.5531H24.66C25.4439 23.5531 26.0834 23.6871 26.5785 23.9553C27.0942 24.2235 27.4964 24.5639 27.7852 24.9764C28.0086 25.2594 28.1837 25.5585 28.3103 25.8738H22.0299V28.8752H28.3556C28.2271 29.2522 28.0267 29.6132 27.7543 29.9582C27.4655 30.3502 27.0529 30.6802 26.5166 30.9484C25.9802 31.1959 25.3098 31.3197 24.5053 31.3197H21.9061Z" fill="#FFCA08"/>
</svg>
