<svg width="13" height="19" viewBox="0 0 13 19" fill="none" xmlns="http://www.w3.org/2000/svg">
<path d="M6.5 18.2287C6.33502 18.0309 6.12244 17.7715 5.87609 17.4609C5.27304 16.7008 4.46975 15.6367 3.6674 14.42C2.86414 13.202 2.06776 11.84 1.47364 10.4832C0.876744 9.12013 0.5 7.79798 0.5 6.65C0.5 3.23883 3.19326 0.5 6.5 0.5C9.80674 0.5 12.5 3.23883 12.5 6.65C12.5 7.79798 12.1233 9.12013 11.5264 10.4832C10.9322 11.84 10.1359 13.202 9.3326 14.42C8.53025 15.6367 7.72696 16.7008 7.12391 17.4609C6.87756 17.7715 6.66498 18.0309 6.5 18.2287ZM3.67857 6.65C3.67857 8.22633 4.93174 9.525 6.5 9.525C8.06826 9.525 9.32143 8.22633 9.32143 6.65C9.32143 5.07367 8.06826 3.775 6.5 3.775C4.93174 3.775 3.67857 5.07367 3.67857 6.65Z" stroke="#FFCA08"/>
</svg>
