<svg width="112" height="120" viewBox="0 0 112 120" fill="none" xmlns="http://www.w3.org/2000/svg">
<path fill-rule="evenodd" clip-rule="evenodd" d="M17.3361 14.6146C5.06635 17.9022 -2.21504 30.514 1.07262 42.7837L14.8978 94.3799C18.1854 106.65 30.7972 113.931 43.0669 110.643L75.1318 102.052V116.666C75.0175 119.637 76.6402 122.905 84.045 112.209C88.3281 106.022 92.3588 100.608 95.4606 96.5894C107.246 92.9794 114.142 80.6506 110.927 68.6491L97.1014 17.0529C93.8138 4.78314 81.202 -2.49825 68.9323 0.789415L17.3361 14.6146Z" fill="#FFCB05"/>
<mask id="mask0" mask-type="alpha" maskUnits="userSpaceOnUse" x="0" y="0" width="112" height="112">
<path d="M1.07262 42.7837C-2.21504 30.514 5.06635 17.9022 17.3361 14.6146L68.9323 0.789415C81.202 -2.49825 93.8138 4.78315 97.1014 17.0529L110.927 68.6491C114.214 80.9188 106.933 93.5306 94.6631 96.8182L43.0669 110.643C30.7972 113.931 18.1854 106.65 14.8978 94.3799L1.07262 42.7837Z" fill="#FFCB05"/>
</mask>
<g mask="url(#mask0)">
<path fill-rule="evenodd" clip-rule="evenodd" d="M42.1028 60.7604L99.8172 -15.5724L130.251 98.0094L42.1028 60.7604ZM58.4662 56.3758L95.3388 7.60822L114.783 80.1735L58.4662 56.3758Z" fill="white"/>
<path fill-rule="evenodd" clip-rule="evenodd" d="M69.6019 53.3914L105.904 7.14323L124.165 75.2923L69.6019 53.3914ZM86.272 48.9247L101.146 29.9758L108.628 57.898L86.272 48.9247Z" fill="#327AA3"/>
</g>
</svg>
