<svg width="38" height="34" viewBox="0 0 38 34" fill="none" xmlns="http://www.w3.org/2000/svg">
<g filter="url(#filter0_b_1_316)">
<rect width="38" height="34" rx="17" fill="white"/>
<rect x="0.25" y="0.25" width="37.5" height="33.5" rx="16.75" stroke="#0869A8" stroke-width="0.5"/>
</g>
<path d="M20 26.5C21.1 26.5 22 25.6 22 24.5H18C18 25.0304 18.2107 25.5391 18.5858 25.9142C18.9609 26.2893 19.4696 26.5 20 26.5ZM26 20.5V15.5C26 12.43 24.36 9.86 21.5 9.18V7H18.5V9.18C15.63 9.86 14 12.42 14 15.5V20.5L12 22.5V23.5H28V22.5L26 20.5Z" fill="#0869A8"/>
<defs>
<filter id="filter0_b_1_316" x="-54" y="-54" width="146" height="142" filterUnits="userSpaceOnUse" color-interpolation-filters="sRGB">
<feFlood flood-opacity="0" result="BackgroundImageFix"/>
<feGaussianBlur in="BackgroundImage" stdDeviation="27"/>
<feComposite in2="SourceAlpha" operator="in" result="effect1_backgroundBlur_1_316"/>
<feBlend mode="normal" in="SourceGraphic" in2="effect1_backgroundBlur_1_316" result="shape"/>
</filter>
</defs>
</svg>
