<svg width="11" height="11" viewBox="0 0 11 11" fill="none" xmlns="http://www.w3.org/2000/svg">
<path d="M10.3889 7.63889C9.625 7.63889 8.89167 7.51667 8.20722 7.29056C7.99333 7.22333 7.755 7.27222 7.58389 7.43722L6.23944 8.78167C4.51 7.90167 3.09222 6.49 2.21222 4.76056L3.55667 3.41C3.72778 3.245 3.77667 3.00667 3.70944 2.79278C3.48333 2.10833 3.36111 1.375 3.36111 0.611111C3.36111 0.275 3.08611 0 2.75 0H0.611111C0.275 0 0 0.275 0 0.611111C0 6.34944 4.65056 11 10.3889 11C10.725 11 11 10.725 11 10.3889V8.25C11 7.91389 10.725 7.63889 10.3889 7.63889Z" fill="#FFCA08"/>
</svg>
